<svg width="48" height="48" viewBox="0 0 48 48" fill="none" xmlns="http://www.w3.org/2000/svg">
<path opacity="0.2" d="M24.0001 9.12413L15.5365 19.2804C14.8293 20.129 13.5682 20.2436 12.7197 19.5365C11.8711 18.8294 11.7564 17.5682 12.4636 16.7197L22.4636 4.71963C23.2632 3.76012 24.7369 3.76012 25.5365 4.71963L35.5365 16.7197C36.2436 17.5682 36.129 18.8293 35.2804 19.5365C34.4319 20.2436 33.1707 20.129 32.4636 19.2804L24 9.12413H24.0001Z" fill="#4056F4"/>
<path opacity="0.8" fill-rule="evenodd" clip-rule="evenodd" d="M6.56156 18H41.4384C42.543 18 43.4384 18.8954 43.4384 20C43.4384 20.1635 43.4184 20.3264 43.3787 20.4851L39.1362 37.4553C38.4684 40.1263 36.0685 42 33.3153 42H14.6846C11.9314 42 9.53147 40.1263 8.86371 37.4553L4.62116 20.4851C4.35326 19.4135 5.00479 18.3276 6.07638 18.0597C6.23502 18.0201 6.39793 18 6.56145 18L6.56156 18ZM24 24C22.8955 24 22 24.8954 22 26V34C22 35.1046 22.8955 36 24 36C25.1046 36 26 35.1046 26 34V26C26 24.8954 25.1046 24 24 24ZM13.9295 24.2726C12.8625 24.5585 12.2294 25.6552 12.5152 26.7221L14.5858 34.4495C14.8717 35.5164 15.9684 36.1496 17.0353 35.8637C18.1022 35.5778 18.7354 34.4812 18.4495 33.4142L16.3789 25.6868C16.0931 24.6199 14.9964 23.9867 13.9295 24.2726ZM34.0707 24.2726C33.0038 23.9867 31.9071 24.6199 31.6212 25.6868L29.5506 33.4142C29.2648 34.4812 29.8979 35.5778 30.9649 35.8637C32.0318 36.1496 33.1285 35.5164 33.4143 34.4495L35.4849 26.7221C35.7708 25.6552 35.1376 24.5585 34.0707 24.2726Z" fill="#4056F4"/>
</svg>
